<svg width="32" height="32" viewBox="0 0 32 32" fill="none" xmlns="http://www.w3.org/2000/svg">
<path d="M22.7088 0H9.2912C4.15971 0 0 4.1597 0 9.2912V22.7088C0 27.8403 4.15971 32 9.2912 32H22.7088C27.8403 32 32 27.8403 32 22.7088V9.2912C32 4.1597 27.8403 0 22.7088 0Z" fill="black"/>
<path d="M7.08301 24.4661H10.8685V12.5273H7.08301V24.4661Z" fill="#EFEFEF"/>
<path d="M13.5414 12.1782H17.579L17.3265 13.7839H17.3692C18.2249 12.8531 19.0694 12.1782 20.5132 12.1782C22.5234 12.1782 25.3251 13.2722 25.3251 16.5998V24.466H21.5396V17.7168C21.5396 16.5302 20.7912 15.3896 19.5721 15.3896C18.4384 15.3896 17.3265 16.5302 17.3265 17.7168V24.466H13.541V12.1782H13.5414Z" fill="#EFEFEF"/>
<path d="M11.0092 9.56564C11.0092 10.6882 10.0994 11.5981 8.97677 11.5981C7.85419 11.5981 6.94434 10.6882 6.94434 9.56564C6.94434 8.44306 7.85419 7.5332 8.97677 7.5332C10.0989 7.5332 11.0092 8.44306 11.0092 9.56564Z" fill="#EFEFEF"/>
</svg>
