<svg width="32" height="32" viewBox="0 0 32 32" fill="none" xmlns="http://www.w3.org/2000/svg">
<g id="logointagram">
<path id="Vector" d="M22.7088 0H9.29119C4.1597 0 0 4.15971 0 9.29121V22.7088C0 27.8403 4.1597 32 9.29119 32H22.7088C27.8403 32 32 27.8403 32 22.7088V9.29121C32 4.16014 27.8403 0 22.7088 0Z" fill="black"/>
<path id="Vector_2" d="M22.3919 6.12646H9.60607C7.68683 6.12646 6.12598 7.68773 6.12598 9.60697V22.3928C6.12598 24.312 7.68726 25.8729 9.60607 25.8729H22.3919C24.3111 25.8729 25.872 24.3116 25.872 22.3928V9.60697C25.872 7.68773 24.3107 6.12646 22.3919 6.12646ZM19.1091 15.9999C19.1091 17.7145 17.7136 19.1101 15.999 19.1101C14.2843 19.1101 12.8888 17.7145 12.8888 15.9999C12.8888 14.2853 14.2843 12.8897 15.999 12.8897C17.7136 12.8897 19.1091 14.2853 19.1091 15.9999ZM19.1625 9.83423C19.1625 9.43142 19.4889 9.10506 19.8917 9.10506H21.7076C22.1104 9.10506 22.4367 9.43142 22.4367 9.83423V11.6501C22.4367 12.0529 22.1104 12.3793 21.7076 12.3793H19.8917C19.4889 12.3793 19.1625 12.0529 19.1625 11.6501V9.83423ZM22.3919 23.5034H9.60607C8.99352 23.5034 8.49544 23.0049 8.49544 22.3928V15.9999H11.3092C11.3092 18.5864 13.4129 20.6897 15.999 20.6897C18.585 20.6897 20.6888 18.5864 20.6888 15.9999H23.5025V22.3928C23.5025 23.0053 23.0044 23.5034 22.3919 23.5034Z" fill="#EFEFEF"/>
</g>
</svg>
